/* XPM */
static char *_2af996deaed45398d5eced49a59c5e9aYauwBYFimp5Htn1[] = {
/* columns rows colors chars-per-pixel */
"64 64 6 1 ",
"  c None",
". c black",
"X c #45283C",
"o c #663931",
"O c #F9EF2F",
"+ c #FBF236",
/* pixels */
"                                                                ",
"                                                                ",
"                                                                ",
"                                                                ",
"                                                                ",
"                                                ....            ",
"                                               ..oo..           ",
"                                              ..oooo..          ",
"                                              .oooooo.          ",
"                                              .oooooo.          ",
"                                              ...oo...          ",
"                                              .O....O.          ",
"                                               .OOOO..          ",
"                                               ..O+O.           ",
"                                                .O+O.           ",
"                                                .O+O.           ",
"                                               ..O+O..          ",
"                                              ..OO+OO.          ",
"                                             ..OO+OOO.          ",
"                                            ..OO+OOOO.          ",
"                                            .OO++OOOO..         ",
"                                           ..OO++O.OOO.         ",
"                                          ..OOO++O.OOO.         ",
"                                         ..OOOO+OO.OOO.         ",
"                                        ..OOO+++OO.OOO.         ",
"                                       ..OOO+++OO..OOO.         ",
"                                      ..OOO++++OO.O+OO.         ",
"                                     ..OO+++++OOO.O+OO.         ",
"                                    ..OOOOO+++OO..O+OO.         ",
"                                   ..OO++++++OOO.O++O..         ",
"                                 ...O++++++++OO..O++O.          ",
"                                ..OO++++++++OOO.+++OO.          ",
"                               .OOOO+++++++OOO..O++OO.          ",
"                             ..OO+++++++++OOO..O++OO..          ",
"                          ....OOOO++++++++OO..++++O..           ",
"            ...............OOOOO+++++++++OO..O+++OO.            ",
"          ...OOOOOOOOOOOOOOO++++++++++++OOO.O++++O.             ",
"       ....OOOOOOOOOOOOO++++++++++++++++OO..+++++..             ",
"      ...OO+++++++++++OO+++++++++++++++O...+++++..              ",
"      .X..O++++++++++++++++++++++++++OO..O+++++O.               ",
"     ..XX.O+++++++++++++++++++++++++OO..OO+++++..               ",
"     ..XX....O++++++++++++++++++++OO..O+++++++..                ",
"      ....OO...O++++++++++++++++OO...OO++++++O.                 ",
"       .OOOOOO...OOOOO+++++++OOO...OOO+++++++..                 ",
"       .OOOOOOOO....OOOOOOOOO....OOO++++++++..                  ",
"       ..OO+++O+OOOO..........OOOOO++++++++..                   ",
"        ..O++++++OOOOOOOOOOOOOOOOO+++++++O..                    ",
"         ..OO++++++++OOOOOOOO++++O++++++O..                     ",
"           ..OOO+++++++++++++++++OO+++O...                      ",
"            ...OOOOOO++++++++++++OO+O...                        ",
"              ....OOOOOOO+++++++OOO...                          ",
"                 ......OOOOOOOOO....                            ",
"                      ...........                               ",
"                                                                ",
"                                                                ",
"                                                                ",
"                                                                ",
"                                                                ",
"                                                                ",
"                                                                ",
"                                                                ",
"                                                                ",
"                                                                ",
"                                                                "
};
