/* XPM */
static char *_db905e489314864cbf2a49c91377361F4X4KcNyKtpuXYFS[] = {
/* columns rows colors chars-per-pixel */
"64 64 8 1 ",
"  c None",
". c black",
"X c #AC3232",
"o c #8F563B",
"O c #D9A066",
"+ c #D77BBA",
"@ c #EEC39A",
"# c white",
/* pixels */
"                                                                ",
"                                                                ",
"                                                                ",
"                                                                ",
"                                                                ",
"                                                                ",
"                                                                ",
"                                                                ",
"                                                                ",
"                                                                ",
"                      ............                              ",
"                   ....OOOOOOOOOOO...                           ",
"                  ..OOOOOOOOOOOOOOOO...                         ",
"                  .OOOOOOOOOOOOOOOOOOO..                        ",
"               ...OOOOOOO...........OOO...                      ",
"            ....OOOO......@@@@@@@@@....OO..                     ",
"            .OOOOO...@@@@@@@@@@@@@@@@@...O.                     ",
"           .OOOOO..@@@@..@@@@@@@@@@@.@@@....                    ",
"          ..OOOO..@@@@@@..@@@@@@@@@..@@@@@..                    ",
"          .OOOO..@@...@@@..@@@@@@@..@@@@.@.O.                   ",
"         ..OOOO.@@@.....@@@@@@@@@@@@@@...@.O.                   ",
"         .O..OO.@@@@.##...@@......@@@..#.@.O.                   ",
"        ........@@@@@.###....oooo.....#..@@..                   ",
"       ....@@@@.@@@@@.....oooooooooo....@@@..                   ",
"       .O.@@@@@.@@@@@@@.oooooo.oo..oo.@@@@@...                  ",
"       .O..@@@@.@@@@@@@..ooooo..o.ooo.@@@@@.O.                  ",
"      ..OO..@@@.@@@@@@@@.ooooooooooo..@@@@..O.                  ",
"      .OOOO..@@.@@@@@@@@.ooooooooooo.@@@@@.OO.                  ",
"      .OOOOO.@@..@@@@@@@.oooo........@@@@@.OO.                  ",
"      .OOOOOO....@@@@@@.ooo...######.@@@@@.OO.                  ",
"      ..OOOOOOOO.@@@@@@.....########..@@@@.OO.                  ",
"       ..OOOOOOOO.@@@@@.X.###......##..@@@.OO.                  ",
"        ..OOOOOOO.@@@@@.XX.#.XXXXX.##..@@.OOO.                  ",
"         ..OOOOOO..@@@..XX..XXXXXX.#.X.@@.OOO.                  ",
"          .OOOOOOO.@@@.XXXXX.....X.#.X.@..OOO..                 ",
"           .OOOOOO.@@@.XXX..++++..X..X.@.OOOOO.                 ",
"           ..OOOOO..@@.XX..++++++.XXX....OOOOO..                ",
"            ..OOOOO.@@.XX.+++++++..XX...OOOOOOO.                ",
"             ..OOOO..@....+X+++X++.XX..OOOOOOOOO.               ",
"              .OOOOO....+++XXXXX++.X...OOOOOOOOO.               ",
"               .OOOOO...++++XXX+++...@.OOOOOOOOO.               ",
"               ..OOOO.@.+++++X++++.@@@.OOOOO.....               ",
"                .OOOO....+++++++++.@@..OOOO..                   ",
"                ..OOOO....+++++++..@..OOO..                     ",
"                 ..OOOO.@....++...@..OOO..       ......         ",
"                  ..OOO..@@@...@@@..OOO..      ..OOOOO..        ",
"                   ...OO..@@@@@@@..OOO..      ..OOOOOOO..       ",
"                     .......@@@@..OO...       .OOOOOOOOO.       ",
"                           .........          .OOOOOOOOO.       ",
"                                              .OOOOOOOO..       ",
"                                    .....     .OOOOOO..         ",
"                                 ...OOOO...   .OOOOOO..         ",
"                                ..OOOOOOOO..  .OOOOOOO.         ",
"                                .OOOOOOOOOO..  .OOO....         ",
"                               ..OOOOOOOOOOO.  ..OO.            ",
"                               .OOOOOOOOOOOO.   ....            ",
"                               ..OOOOOOO.OOO.                   ",
"                                .OOOOOOO..O..                   ",
"                                ..OOOOOO....                    ",
"                                 .OOO..O.                       ",
"                                 ..OO....                       ",
"                                  .....                         ",
"                                                                ",
"                                                                "
};
